<svg xmlns="http://www.w3.org/2000/svg" viewBox="0 0 1024 1024" width="1024" height="1024" role="img" aria-label="Filametry">
  <defs>
    <linearGradient id="fm-grad" x1="0" y1="0" x2="0" y2="1">
      <stop offset="0%" stop-color="#3b6dff"></stop>
      <stop offset="100%" stop-color="#7a3cff"></stop>
    </linearGradient>
  </defs>
  <rect x="0" y="0" width="1024" height="1024" rx="225" fill="url(#fm-grad)"></rect>
  <g stroke="rgba(255,255,255,0.14)" stroke-width="16">
    <line x1="0" y1="160" x2="1024" y2="160"></line>
    <line x1="0" y1="240" x2="1024" y2="240"></line>
    <line x1="0" y1="320" x2="1024" y2="320"></line>
    <line x1="0" y1="400" x2="1024" y2="400"></line>
    <line x1="0" y1="480" x2="1024" y2="480"></line>
    <line x1="0" y1="560" x2="1024" y2="560"></line>
    <line x1="0" y1="640" x2="1024" y2="640"></line>
    <line x1="0" y1="720" x2="1024" y2="720"></line>
    <line x1="0" y1="800" x2="1024" y2="800"></line>
    <line x1="0" y1="880" x2="1024" y2="880"></line>
  </g>
  <path d="M304 256 L736 256 L736 384 L432 384 L432 480 L672 480 L672 608 L432 608 L432 768 L304 768 Z" fill="#ffffff"></path>
</svg>