<svg xmlns="http://www.w3.org/2000/svg" viewBox="0 0 64 64" width="512" height="512" role="img" aria-label="Filametry">
  <defs>
    <linearGradient id="fm-grad" x1="0" y1="0" x2="0" y2="1">
      <stop offset="0%" stop-color="#3b6dff"></stop>
      <stop offset="100%" stop-color="#7a3cff"></stop>
    </linearGradient>
  </defs>
  <rect x="2" y="2" width="60" height="60" rx="12" fill="url(#fm-grad)"></rect>
  <g stroke="rgba(255,255,255,0.16)" stroke-width="1">
    <line x1="2" y1="10" x2="62" y2="10"></line>
    <line x1="2" y1="15" x2="62" y2="15"></line>
    <line x1="2" y1="20" x2="62" y2="20"></line>
    <line x1="2" y1="25" x2="62" y2="25"></line>
    <line x1="2" y1="30" x2="62" y2="30"></line>
    <line x1="2" y1="35" x2="62" y2="35"></line>
    <line x1="2" y1="40" x2="62" y2="40"></line>
    <line x1="2" y1="45" x2="62" y2="45"></line>
    <line x1="2" y1="50" x2="62" y2="50"></line>
    <line x1="2" y1="55" x2="62" y2="55"></line>
  </g>
  <path d="M19 16 L46 16 L46 24 L27 24 L27 30 L42 30 L42 38 L27 38 L27 48 L19 48 Z" fill="#ffffff"></path>
</svg>